<svg xmlns="http://www.w3.org/2000/svg" height="40" viewBox="0 -960 960 960" width="40"><path d="M479.521-101.078q-70.17 0-132.076-26.564-61.906-26.564-107.906-72.436-45.999-45.872-72.768-107.758-26.77-61.887-26.77-132.525 0-70.637 26.77-132.368 26.769-61.732 72.768-107.937 46-46.205 107.906-72.769 61.906-26.564 132.076-26.564 70.171 0 132.017 26.564 61.846 26.564 108.051 72.769 46.205 46.205 72.769 107.956 26.564 61.75 26.564 132.409 0 70.66-26.564 132.506-26.564 61.845-72.769 107.717-46.205 45.872-108.051 72.436-61.846 26.564-132.017 26.564Zm.069-338.512Zm123.128 157.692 35.384-35.384-131.898-131.779V-640h-50.255v211.077l146.769 147.025ZM225.282-844.87l35.384 35.127-151.64 148.922-35.383-35.384L225.282-844.87Zm508.359 0 151.896 148.665-35.384 35.384-151.64-148.922 35.128-35.127ZM479.516-151.333q120.484 0 204.817-84.343 84.334-84.343 84.334-204.763 0-120.527-84.343-204.916t-204.763-84.389q-120.527 0-204.916 84.388-84.389 84.387-84.389 204.872 0 120.484 84.388 204.817 84.387 84.334 204.872 84.334Z"/></svg>