<svg xmlns="http://www.w3.org/2000/svg" height="40" viewBox="0 -960 960 960" width="40"><path d="M708.411-133.949 448.564-395.027q-22.641 9.154-45.641 14.654t-48.317 5.5q-94.312 0-160.408-66.008-66.095-66.008-66.095-160.196 0-28.435 6.994-55.162 6.994-26.726 19.929-50.888l143.282 142.256 95.59-92.616-143.64-144.41q24.035-13.13 50.235-20.616 26.2-7.486 54.225-7.486 95.427 0 162.303 66.794 66.876 66.795 66.876 162.106 0 25.997-5.308 48.997t-14.847 44.872L824.41-247.383q9.795 9.765 9.795 24.241 0 14.476-9.795 24.271l-68.666 65.691q-9.592 9.795-23.565 9.41-13.973-.384-23.768-10.179Zm24.872-46.203 42.975-42.975-274.642-274.642q16.026-21.436 24.026-48.885 8-27.449 8-54.423 0-73.718-55.924-128.539-55.924-54.821-135.464-50.026l100.207 101.027q8.974 8.951 9.358 21.68.385 12.73-8.589 21.704L320.256-516.052q-8.951 8.718-22.065 8.718t-21.832-8.718l-98.309-97.899q-2.821 86.746 52.272 137.785 55.092 51.039 124.396 51.039 25.974 0 53.115-7.808 27.141-7.808 48.911-24.013l276.539 276.796ZM473.897-484.564Z"/></svg>