<svg xmlns="http://www.w3.org/2000/svg" height="40" viewBox="0 -960 960 960" width="40"><path d="M481.154-140.001q-141.666 0-240.832-99.167Q141.155-338.334 141.155-480q0-135.768 92.115-232.883 92.114-97.115 225.575-105.192 5.64 0 11.717.41 6.076.41 14.743.941-28.307 30.136-44.23 70.879-15.923 40.743-15.923 85.845 0 98.334 68.834 167.168 68.834 68.833 167.168 68.833 45.051 0 85.819-15.179 40.769-15.179 70.487-41.998.564 7.589.974 12.922.411 5.333.411 10.563-7.693 133.461-104.808 225.575-97.115 92.115-232.883 92.115Zm0-50.255q98.154 0 173.564-57.834 75.41-57.833 101.462-141.936-22.308 7.975-46.547 12.129-24.24 4.153-48.479 4.153-118.951 0-202.604-83.652Q374.898-541.049 374.898-660q0-22.154 3.948-45.744 3.949-23.589 13-50.769-87.743 29.436-144.089 105.644Q191.41-574.661 191.41-480q0 120.513 84.616 205.128 84.615 84.616 205.128 84.616Zm-7.026-283.129Z"/></svg>