<svg xmlns="http://www.w3.org/2000/svg" height="40" viewBox="0 -960 960 960" width="40"><path d="m480-147.335-35.896-32.512q-101.871-93.03-168.346-160.066-66.475-67.037-105.59-119.101-39.115-52.063-54.641-94.338-15.526-42.275-15.526-85.11 0-83.246 56.141-139.392 56.141-56.145 138.986-56.145 54.693 0 102.051 26.937 47.359 26.936 82.821 77.987 38.436-52.539 84.886-78.731 46.45-26.193 99.986-26.193 82.845 0 138.986 56.145 56.141 56.146 56.141 139.392 0 42.835-15.526 85.11t-54.612 94.283q-39.086 52.009-105.526 119.101-66.439 67.091-168.439 160.121L480-147.335Zm0-67.127q98.479-89.651 162.081-153.68 63.601-64.028 100.888-111.789 37.287-47.761 52.031-84.892 14.744-37.13 14.744-73.542 0-62.815-41.077-104.097t-103.645-41.282q-49.888 0-91.878 29.321-41.99 29.32-71.145 85.09H457.59q-29.128-55.487-71.049-84.949-41.921-29.462-91.563-29.462-62.183 0-103.452 41.282-41.27 41.282-41.27 104.296 0 36.373 14.785 73.639t51.897 85.191q37.113 47.926 101.139 111.656Q382.103-303.949 480-214.462Zm0-284.641Z"/></svg>