<svg xmlns="http://www.w3.org/2000/svg" height="40" viewBox="0 -960 960 960" width="40"><path d="M437.179-298.463h-155.64q-75.338 0-128.438-53.093-53.1-53.093-53.1-128.422t53.1-128.444q53.1-53.115 128.438-53.115h155.64v50.255h-155.64q-54.659 0-92.971 38.266-38.312 38.266-38.312 92.859 0 54.593 38.312 93.016t92.971 38.423h155.64v50.255Zm-104.614-156.41v-50.254h295.127v50.254H332.565Zm190.256 156.41v-50.255h155.64q54.659 0 92.971-38.266 38.312-38.266 38.312-92.859 0-54.593-38.312-93.016t-92.971-38.423h-155.64v-50.255h155.64q75.338 0 128.438 53.093 53.1 53.093 53.1 128.422t-53.1 128.444q-53.1 53.115-128.438 53.115h-155.64Z"/></svg>