<svg xmlns="http://www.w3.org/2000/svg" height="40" viewBox="0 -960 960 960" width="40"><path d="M297.95-607.436v-50.255h522.049v50.255H297.95Zm0 152.563v-50.254h522.049v50.254H297.95Zm0 152.564v-50.255h522.049v50.255H297.95ZM167.432-605.128q-11.162 0-19.296-8.117-8.135-8.117-8.135-19.908 0-11.464 8.139-19.155 8.139-7.691 19.635-7.691 11.495 0 19.296 7.778 7.801 7.777 7.801 19.273 0 11.586-7.889 19.703-7.889 8.117-19.551 8.117Zm0 152.179q-11.162 0-19.296-8.027-8.135-8.027-8.135-19.357 0-11.821 8.139-19.654t19.635-7.833q11.495 0 19.296 7.917 7.801 7.916 7.801 20.031 0 10.875-7.889 18.899-7.889 8.024-19.551 8.024Zm0 152.948q-11.162 0-19.296-8.117-8.135-8.117-8.135-19.909 0-11.464 8.139-19.155 8.139-7.69 19.635-7.69 11.495 0 19.296 7.777t7.801 19.274q0 11.586-7.889 19.703-7.889 8.117-19.551 8.117Z"/></svg>