<svg xmlns="http://www.w3.org/2000/svg" height="40" viewBox="0 -960 960 960" width="40"><path d="m168.59-133.847-35.384-35.384L545.77-581.795q-21.051-47.795-9.359-96.782 11.692-48.987 54.436-91.576 42.025-41.615 103.409-55.385 61.384-13.769 101.872 26.462 40.641 40.641 26.333 101.615t-57.41 104.743q-40.436 40.999-88.885 53.23-48.448 12.231-94.602-7.333l-69.796 69.795 308.051 307.795-35.383 35.384-308.052-306.872L168.59-133.847Zm123.692-344.154L177.308-592.718q-47.897-48.154-50.448-113.666-2.552-65.513 40.909-117.461l234.974 235.384-110.461 110.46Z"/></svg>