<svg xmlns="http://www.w3.org/2000/svg" height="40" viewBox="0 -960 960 960" width="40"><path d="M480.147-490.257q27.878 0 47.583-19.852 19.705-19.853 19.705-47.731t-19.852-47.582q-19.853-19.705-47.73-19.705-27.878 0-47.583 19.852t-19.705 47.73q0 27.878 19.852 47.583 19.853 19.705 47.73 19.705ZM480-166.333q122.666-109.538 187.167-209.295 64.5-99.756 64.5-174.449 0-113.667-72.207-186.859-72.208-73.192-179.46-73.192-107.252 0-179.46 73.192-72.207 73.192-72.207 186.859 0 74.693 65.244 174.449Q358.821-275.871 480-166.333Zm0 66.716Q329.001-230.463 253.539-343.154q-75.461-112.692-75.461-206.923 0-138.46 89.577-224.191Q357.231-859.999 480-859.999t212.345 85.731q89.577 85.731 89.577 224.191 0 94.231-75.461 206.923Q630.999-230.463 480-99.617Zm0-458.075Z"/></svg>