<svg id="Layer_1" enable-background="new 0 0 512 512" height="512" viewBox="0 0 512 512" width="512" xmlns="http://www.w3.org/2000/svg"><g><path d="m80 338v-164c0-55.229 44.772-100 100-100h-60c-55.228 0-100 44.771-100 100v164c0 55.229 44.772 100 100 100h60c-55.228 0-100-44.771-100-100z" fill="#cee1f2"/><path d="m392 458h-272c-66.168 0-120-53.832-120-120v-164c0-66.168 53.832-120 120-120h272c66.168 0 120 53.832 120 120v164c0 66.168-53.832 120-120 120zm-272-364c-44.112 0-80 35.888-80 80v164c0 44.112 35.888 80 80 80h272c44.112 0 80-35.888 80-80v-164c0-44.112-35.888-80-80-80z" fill="#1428bf"/><path d="m256.496 315.924c-25.676 0-51.346-8.169-72.77-24.509-.049-.037-.097-.074-.146-.112l-95.854-74.513c-8.721-6.779-10.295-19.344-3.516-28.065 6.778-8.721 19.344-10.296 28.065-3.516l95.781 74.455c28.561 21.731 68.419 21.714 96.96-.055l98.843-75.503c8.778-6.705 21.328-5.025 28.034 3.753 6.705 8.778 5.025 21.329-3.753 28.034l-98.855 75.512c-21.43 16.345-47.113 24.519-72.789 24.519z" fill="#df5cf0"/></g></svg>