<svg xmlns="http://www.w3.org/2000/svg" height="40" viewBox="0 -960 960 960" width="40"><path d="M677.973-392.361 641-429.847q13.409-18.718 20.038-43.43 6.628-24.713 6.628-51.185h50.255q0 38.154-10.487 71.269-10.487 33.114-29.461 60.832ZM456.435-614.438Zm87.896 88.281-45.742-45.332v-197.844q0-17.175-11.692-28.793-11.692-11.618-28.975-11.618t-28.847 11.618q-11.563 11.618-11.563 28.793v115.588L367.257-704v-65.333q0-38.034 26.335-64.35 26.335-26.316 64.396-26.316 38.062 0 64.459 26.316 26.397 26.316 26.397 64.35v218.716q0 5.281-1.129 12.307-1.128 7.025-3.384 12.153ZM432.795-130.001v-138.206q-99.821-9.82-167.346-83.025-67.526-73.204-67.526-173.23h50.255q0 87.052 61.27 147.244 61.269 60.192 148.474 60.192 40.456 0 76.751-14.609 36.295-14.61 64.199-40.699l35.999 35.742q-30.077 28.719-68.765 46.464-38.687 17.746-83.057 21.921v138.206h-50.254ZM813.77-90.977 57.411-847.079l33.486-33.486L847-124.207l-33.229 33.23Z"/></svg>