<svg xmlns="http://www.w3.org/2000/svg" height="40" viewBox="0 -960 960 960" width="40"><path d="M162.565-180.001q-25.788 0-44.176-18.388t-18.388-44.176v-474.87q0-25.788 18.388-44.176t44.176-18.388h634.87q25.788 0 44.176 18.388t18.388 44.176v474.87q0 25.788-18.388 44.176t-44.176 18.388h-634.87Zm94.153-179.332h37.179v-241.334H264.41l-69.179 48.052 19.436 29.127 42.051-28.615v192.77Zm127.692 0h154.769v-34.564H434.666l-.154-2.77q16.077-14.025 31.641-28.807 15.565-14.782 29.334-29.193 18.718-18.692 28.436-36.32t9.718-40.603q0-29.684-20.846-49.38-20.846-19.697-53.718-19.697-26.231 0-46.128 13.436T383.59-552l34.564 15.538q5.384-11.923 16.615-19.756 11.231-7.834 24.222-7.834 17.727 0 28.009 9.618 10.282 9.617 10.282 24.434 0 15.974-7.231 27.5-7.23 11.526-22.974 26.705-21.564 21.898-39.782 39.116-18.218 17.218-42.885 40.833v36.513Zm302.359 0q34.077 0 55.859-18.141 21.782-18.141 21.782-51.552 0-23.307-12.064-38.192-12.064-14.885-32.705-18.372v-1.436q18.102-5.153 27.231-17.807Q756-517.487 756-537.949q0-28.487-19.987-45.602-19.987-17.116-50.577-17.116-25.01 0-43.223 13.347Q624-573.974 613.846-556l31.641 15.538q6.539-11.205 17.051-17.807 10.513-6.603 22.898-6.603 14.974 0 24.59 8.615 9.615 8.616 9.615 22.667 0 16.257-11.484 24.077-11.485 7.821-29.798 7.821h-13.795v34.974h15.385q20.487 0 34.295 9.526 13.808 9.525 13.808 27.082 0 16.623-11.911 27.085-11.91 10.461-29.372 10.461-15.923 0-28.32-8.782-12.398-8.782-19.372-25.936l-32.051 12.205q8.179 25.872 28.372 40.808 20.192 14.936 51.371 14.936ZM162.565-230.256h634.87q5.385 0 8.847-3.462 3.462-3.462 3.462-8.847v-474.87q0-5.385-3.462-8.847-3.462-3.462-8.847-3.462h-634.87q-5.385 0-8.847 3.462-3.462 3.462-3.462 8.847v474.87q0 5.385 3.462 8.847 3.462 3.462 8.847 3.462Zm-12.309 0v-499.488 499.488Z"/></svg>