<svg xmlns="http://www.w3.org/2000/svg" height="40" viewBox="0 -960 960 960" width="40"><path d="M418.872-338.847q20.641 20.769 56.987 19.154 36.346-1.615 52.858-26.666l213.282-315.948-314.819 214q-25.025 16.769-26.987 52.73-1.962 35.961 18.679 56.73Zm60.051-440.741q56.256 0 109.859 16.038 53.602 16.038 104.268 52.038l-44.742 31.179q-39.846-24.769-84.346-36.885-44.5-12.115-84.983-12.115-136.77 0-232.746 96.785-95.977 96.784-95.977 234.457 0 43.476 11.911 86.912 11.91 43.435 34.055 80.923h565.06q22.59-36.923 34.372-81.436 11.782-44.513 11.782-89.334 0-38.974-10.91-82.961-10.911-43.988-36.629-81.347l31.999-44.742q33.667 52.744 49.09 103.141 15.423 50.397 16.705 102.781 1.025 55.538-11.821 104.423-12.846 48.884-38.692 94.038-8.589 15.307-20.204 20.499-11.615 5.193-27.589 5.193H198.051q-13.88 0-26.901-7.077-13.021-7.077-20.226-20.154-22.923-41.23-36.923-88.05-14-46.821-14-102.821 0-78.384 29.739-147.781t80.987-121.256q51.248-51.859 120.573-82.153 69.325-30.295 147.623-30.295Zm-3.282 304.614Z"/></svg>