<svg xmlns="http://www.w3.org/2000/svg" height="40" viewBox="0 -960 960 960" width="40"><path d="M454.873-756.41v-142.819h50.254v142.819h-50.254Zm238.049 98.871-34.794-34.793 100.179-102.743 35.768 36.383-101.153 101.153Zm63.488 202.666v-50.254h142.819v50.254H756.41ZM454.873-60.771v-142.435h50.254v142.435h-50.254ZM267.437-658.744l-102.102-99.563 36.358-35.384 101.153 100.769-35.409 34.178Zm491.332 493.409L658.128-267.668l34.179-33.793 101.794 98.948-35.332 37.178ZM60.771-454.873v-50.254H203.59v50.254H60.77Zm140.947 289.538-35.409-36.358 99.769-99.768 18.307 17.053 18.692 17.715-101.359 101.358Zm278.373-94.666q-91.629 0-155.859-64.14-64.231-64.14-64.231-155.768 0-91.629 64.14-155.859 64.14-64.231 155.768-64.231 91.629 0 155.859 64.14 64.231 64.14 64.231 155.768 0 91.629-64.14 155.859-64.14 64.231-155.768 64.231Zm-.132-50.255q70.503 0 120.144-49.601 49.641-49.6 49.641-120.102 0-70.503-49.601-120.144-49.6-49.641-120.102-49.641-70.503 0-120.144 49.601-49.641 49.6-49.641 120.102 0 70.503 49.601 120.144 49.6 49.641 120.102 49.641ZM480-480Z"/></svg>