<svg xmlns="http://www.w3.org/2000/svg" height="40" viewBox="0 -960 960 960" width="40"><path d="m476.359-110.771 167.486-443.075h76.256l170.05 443.075h-78.563l-38.513-114.666H594.769l-41.641 114.666h-76.769Zm139.794-179.281h131.64l-64.615-180.717h-2.41l-64.615 180.717ZM185.386-221.54l-51.743-51.743 187.691-187.435q-34.923-39.615-61.653-80.82-26.731-41.205-46.602-86.153h78.563q16.436 31.82 35.205 58.653t43.974 55.859q41.333-44.128 68.628-90.461t46.038-97.897H74.617v-73.846h258.461v-73.846h73.846v73.846h258.46v73.846H559.333q-19.872 64.153-53.192 125.756-33.32 61.602-82.346 116.396l89.384 90.974-27.692 75.179-115.486-112.922L185.386-221.54Z"/></svg>