<svg xmlns="http://www.w3.org/2000/svg" height="40" viewBox="0 -960 960 960" width="40"><path d="m623.743-436.616-38.153-38.153q17.256-61.59-28.475-104.09T454.769-605.59l-38.153-38.153q13.539-7.307 29.461-10.884Q462-658.204 480-658.204q66.179 0 112.191 46.013Q638.204-566.179 638.204-500q0 18-3.782 34.512-3.782 16.513-10.679 28.872Zm127.641 125.948-35.487-33.793q43.283-32.385 76.295-71.757Q825.205-455.59 844.308-500q-50-105.872-146.808-167.808-96.808-61.936-212.628-61.936-35.359 0-71.077 6.026-35.718 6.026-61.898 15.256l-38.768-39.178q34.949-14.666 80.102-23.512 45.154-8.847 89.333-8.847 136.563 0 249.896 76.59Q845.793-626.82 898.46-500q-23.718 56.179-60.602 103.794-36.885 47.615-86.474 85.538Zm50.718 221.64L640.257-249.233q-30.769 12.872-72.321 21.052-41.551 8.18-87.936 8.18-138.692 0-251.717-76.59Q115.258-373.18 61.54-500q21.744-52.59 58.513-100.372 36.77-47.782 83.795-85.936L85.233-805.077l35.383-35.794 715.383 715.383-33.897 36.46ZM238.565-650.924q-35.487 25.897-70.526 67.552Q133-541.718 115.282-500q50.41 105.872 148.372 167.808 97.961 61.936 220.141 61.936 33.924 0 67.232-5.36 33.308-5.359 50.257-12.59l-64.155-64.565q-10.487 4.975-26.795 7.975t-30.334 3q-65.769 0-111.986-45.807Q321.796-433.411 321.796-500q0-14.051 3-29.757 3-15.705 7.975-27.372l-94.206-93.795Zm296.076 129.257Zm-114.588 57.512Z"/></svg>