<svg xmlns="http://www.w3.org/2000/svg" height="40" viewBox="0 -960 960 960" width="40"><path d="M480.169-341.796q65.754 0 111.894-46.31 46.141-46.309 46.141-112.063t-46.31-111.894q-46.309-46.141-112.063-46.141t-111.894 46.31q-46.141 46.309-46.141 112.063t46.31 111.894q46.309 46.141 112.063 46.141Zm-.371-48.307q-45.875 0-77.785-32.112-31.91-32.112-31.91-77.987 0-45.875 32.112-77.785 32.112-31.91 77.987-31.91 45.875 0 77.785 32.112 31.91 32.112 31.91 77.987 0 45.875-32.112 77.785-32.112 31.91-77.987 31.91Zm.257 170.102q-137.721 0-250.362-76.731Q117.053-373.462 61.54-500q55.513-126.538 168.098-203.268 112.586-76.731 250.307-76.731t250.362 76.731Q842.947-626.538 898.46-500q-55.513 126.538-168.098 203.268-112.586 76.731-250.307 76.731ZM480-500Zm-.112 229.744q117.163 0 215.048-62.347Q792.821-394.949 844.308-500q-51.487-105.051-149.26-167.397-97.772-62.347-214.936-62.347-117.163 0-215.048 62.347Q167.179-605.051 115.282-500q51.897 105.051 149.67 167.397 97.772 62.347 214.936 62.347Z"/></svg>