<svg xmlns="http://www.w3.org/2000/svg" height="40" viewBox="0 -960 960 960" width="40"><path d="M789.076-74.463 663.179-200.36q-22.136 15.238-47.427 26.477-25.29 11.24-52.213 18.266v-52.255q17.051-5.436 33.128-11.936t30.564-16.756L468.153-396.052v187.587L296.617-380.001H148.156v-199.998H283.54L76.463-787.076l35.794-36.05L824.87-110.667l-35.794 36.204Zm-33.078-216.23-35.819-35.819q22.59-34.026 34-73.141 11.411-39.116 11.411-81.452 0-95.404-55.321-171.393-55.32-75.989-146.73-101.63v-52.255Q675.615-776.46 745.73-686.46q70.115 89.999 70.115 205.46 0 51.795-15.449 100.09-15.449 48.294-44.398 90.217Zm-122.461-122.46-69.998-69.999v-145.001q40.461 22 62.538 61.961Q648.153-526.23 648.153-480q0 17.693-3.654 34.5-3.654 16.808-10.962 32.347ZM468.153-578.537l-86.306-86.692 86.306-86.306v172.998Zm-50.255 247.819v-114.923l-84.103-84.103H198.411v99.488H318.36l99.538 99.538Zm-42.051-156.974Z"/></svg>