<svg xmlns="http://www.w3.org/2000/svg" height="40" viewBox="0 -960 960 960" width="40"><path d="M280-260.001q-91.666 0-155.832-64.14-64.167-64.14-64.167-155.768 0-91.629 64.167-155.859Q188.334-699.999 280-699.999q67.846 0 120.307 35.231 52.462 35.231 76.872 93.026h422.82v183.484h-92.718v128.257H633.54v-128.257H477.179q-24.41 57.795-76.872 93.026Q347.846-260.001 280-260.001Zm0-50.255q68.564 0 111.205-43.68 42.641-43.679 50.665-84.577h244.079v128.257h71.077v-128.257h92.718v-82.974H441.846q-8-40.898-50.641-84.577-42.641-43.68-111.205-43.68-70.519 0-120.131 49.601-49.613 49.6-49.613 120.102 0 70.503 49.613 120.144Q209.481-310.256 280-310.256Zm0-111.079q24.5 0 41.583-17.082Q338.665-455.5 338.665-480t-17.082-41.583Q304.5-538.666 280-538.666t-41.583 17.083Q221.334-504.5 221.334-480t17.083 41.583Q255.5-421.335 280-421.335ZM280-480Z"/></svg>