<svg xmlns="http://www.w3.org/2000/svg" height="40" viewBox="0 -960 960 960" width="40"><path d="M162.565-180.001q-25.788 0-44.176-18.388t-18.388-44.176v-474.87q0-25.788 18.388-44.176t44.176-18.388h634.87q25.788 0 44.176 18.388t18.388 44.176v474.87q0 25.788-18.388 44.176t-44.176 18.388h-634.87ZM480-468.514 150.256-684.361v441.796q0 5.385 3.462 8.847 3.462 3.462 8.847 3.462h634.87q5.385 0 8.847-3.462 3.462-3.462 3.462-8.847v-441.796L480-468.514Zm0-52.563 321.692-208.667H158.975L480-521.077ZM150.256-684.361v-45.383 487.179q0 5.385 3.462 8.847 3.462 3.462 8.847 3.462h-12.309v-454.105Z"/></svg>