<svg xmlns="http://www.w3.org/2000/svg" height="40" viewBox="0 -960 960 960" width="40"><path d="M142.696-211.043q-21.036 0-34.794-14.196-13.757-14.196-13.757-34.638 0-20.63 13.757-34.304 13.758-13.673 34.794-13.673h675.275q20.386 0 34.323 13.79 13.938 13.791 13.938 34.421 0 20.441-13.938 34.521-13.937 14.079-34.323 14.079H142.696Zm0-220.841q-21.036 0-34.794-14.196-13.757-14.197-13.757-34.261 0-20.63 13.757-34.304 13.758-13.674 34.794-13.674h675.275q20.386 0 34.323 13.791 13.938 13.791 13.938 34.421 0 20.064-13.938 34.144-13.937 14.079-34.323 14.079H142.696Zm0-221.03q-21.036 0-34.794-13.913-13.757-13.914-13.757-34.921 0-20.064 13.757-34.021 13.758-13.956 34.794-13.956h675.275q20.386 0 34.323 14.073 13.938 14.074 13.938 34.138 0 21.007-13.938 34.804-13.937 13.796-34.323 13.796H142.696Z"/></svg>