<svg id="visual" viewBox="0 0 900 600" width="900" height="600" xmlns="http://www.w3.org/2000/svg" xmlns:xlink="http://www.w3.org/1999/xlink" version="1.1"><rect width="900" height="600" fill="#ffffff00"></rect><g><g transform="translate(410 141)"><path d="M82 -64.4C102 -40.2 111.3 -6.3 105.4 25.9C99.5 58.1 78.4 88.7 49.7 102.1C20.9 115.6 -15.6 111.9 -47.5 97.1C-79.4 82.3 -106.7 56.4 -113.8 25.8C-121 -4.8 -108 -40.3 -85.6 -65.1C-63.3 -89.8 -31.6 -104 -0.4 -103.7C30.9 -103.4 61.9 -88.7 82 -64.4Z" stroke="#d3d3d3" fill="none" stroke-width="17"></path></g><g transform="translate(889 288)"><path d="M70.4 -56C85.1 -37.8 86.5 -8.9 80.3 18.4C74.1 45.7 60.4 71.3 38.3 83.3C16.3 95.3 -14 93.7 -40.1 81.8C-66.1 69.8 -87.9 47.4 -91.7 23.1C-95.4 -1.1 -81.2 -27.3 -62.9 -46.3C-44.7 -65.3 -22.3 -77.1 2.8 -79.3C27.9 -81.5 55.8 -74.1 70.4 -56Z" stroke="#d3d3d3" fill="none" stroke-width="17"></path></g><g transform="translate(114 434)"><path d="M72.7 -54.4C91.6 -34.2 102.6 -4.2 96.4 21.6C90.2 47.4 66.9 69 39.7 81.9C12.5 94.8 -18.7 99.1 -43.5 88C-68.3 77 -86.8 50.5 -90.7 23.5C-94.7 -3.5 -84 -31 -66.5 -50.9C-48.9 -70.7 -24.5 -83 1.2 -83.9C26.9 -84.9 53.8 -74.6 72.7 -54.4Z" stroke="#d3d3d3" fill="none" stroke-width="17"></path></g></g></svg>