<svg id="visual" viewBox="0 0 900 600" width="900" height="600" xmlns="http://www.w3.org/2000/svg" xmlns:xlink="http://www.w3.org/1999/xlink" version="1.1"><rect x="0" y="0" width="900" height="600" fill="#002233"></rect><path d="M0 505L21.5 488C43 471 86 437 128.8 424.5C171.7 412 214.3 421 257.2 437.2C300 453.3 343 476.7 385.8 491.2C428.7 505.7 471.3 511.3 514.2 506.5C557 501.7 600 486.3 642.8 485.5C685.7 484.7 728.3 498.3 771.2 485.7C814 473 857 434 878.5 414.5L900 395L900 601L878.5 601C857 601 814 601 771.2 601C728.3 601 685.7 601 642.8 601C600 601 557 601 514.2 601C471.3 601 428.7 601 385.8 601C343 601 300 601 257.2 601C214.3 601 171.7 601 128.8 601C86 601 43 601 21.5 601L0 601Z" fill="#0066FF" stroke-linecap="round" stroke-linejoin="miter"></path></svg>